<svg width="48" height="57" viewBox="0 0 48 57" fill="none" xmlns="http://www.w3.org/2000/svg">
<g clip-path="url(#clip0_1281_1701)">
<g filter="url(#filter0_di_1281_1701)">
<path d="M24.5 2C15.9415 2 9 8.87451 9 17.3539C9 30.5657 19.5591 40.5712 23.2492 43.6611C23.9714 44.2702 25.0321 44.2702 25.7542 43.6611C29.4409 40.5712 40 30.5657 40 17.3539C40 8.87451 33.062 2 24.5 2ZM24.5 27.1917C19.0132 27.1917 14.5663 22.7878 14.5663 17.3539C14.5663 11.92 19.0132 7.51261 24.5 7.51261C29.9868 7.51261 34.4371 11.92 34.4371 17.3539C34.4371 22.7878 29.9868 27.1917 24.5 27.1917Z" fill="#79B937"/>
</g>
<g filter="url(#filter1_di_1281_1701)">
<path d="M34.5235 44.4961C34.5235 46.4295 30.0387 48.0001 24.5035 48.0001C18.9682 48.0001 14.4834 46.4329 14.4834 44.4961C14.4834 43.2095 16.4667 42.0871 19.4209 41.478C20.6855 42.751 21.805 43.7433 22.6066 44.4174C23.1352 44.8622 23.809 45.1052 24.5035 45.1052C25.198 45.1052 25.8717 44.8622 26.4004 44.4174C27.202 43.7433 28.3215 42.7544 29.5861 41.478C32.5402 42.0871 34.5235 43.2095 34.5235 44.4961Z" fill="#79B937"/>
</g>
</g>
<defs>
<filter id="filter0_di_1281_1701" x="-1" y="-4" width="51" height="62.1177" filterUnits="userSpaceOnUse" color-interpolation-filters="sRGB">
<feFlood flood-opacity="0" result="BackgroundImageFix"/>
<feColorMatrix in="SourceAlpha" type="matrix" values="0 0 0 0 0 0 0 0 0 0 0 0 0 0 0 0 0 0 127 0" result="hardAlpha"/>
<feOffset dy="4"/>
<feGaussianBlur stdDeviation="5"/>
<feComposite in2="hardAlpha" operator="out"/>
<feColorMatrix type="matrix" values="0 0 0 0 0 0 0 0 0 0 0 0 0 0 0 0 0 0 0.25 0"/>
<feBlend mode="normal" in2="BackgroundImageFix" result="effect1_dropShadow_1281_1701"/>
<feBlend mode="normal" in="SourceGraphic" in2="effect1_dropShadow_1281_1701" result="shape"/>
<feColorMatrix in="SourceAlpha" type="matrix" values="0 0 0 0 0 0 0 0 0 0 0 0 0 0 0 0 0 0 127 0" result="hardAlpha"/>
<feOffset dy="1"/>
<feGaussianBlur stdDeviation="0.5"/>
<feComposite in2="hardAlpha" operator="arithmetic" k2="-1" k3="1"/>
<feColorMatrix type="matrix" values="0 0 0 0 0 0 0 0 0 0 0 0 0 0 0 0 0 0 0.25 0"/>
<feBlend mode="normal" in2="shape" result="effect2_innerShadow_1281_1701"/>
</filter>
<filter id="filter1_di_1281_1701" x="4.4834" y="35.478" width="40.04" height="26.522" filterUnits="userSpaceOnUse" color-interpolation-filters="sRGB">
<feFlood flood-opacity="0" result="BackgroundImageFix"/>
<feColorMatrix in="SourceAlpha" type="matrix" values="0 0 0 0 0 0 0 0 0 0 0 0 0 0 0 0 0 0 127 0" result="hardAlpha"/>
<feOffset dy="4"/>
<feGaussianBlur stdDeviation="5"/>
<feComposite in2="hardAlpha" operator="out"/>
<feColorMatrix type="matrix" values="0 0 0 0 0 0 0 0 0 0 0 0 0 0 0 0 0 0 0.25 0"/>
<feBlend mode="normal" in2="BackgroundImageFix" result="effect1_dropShadow_1281_1701"/>
<feBlend mode="normal" in="SourceGraphic" in2="effect1_dropShadow_1281_1701" result="shape"/>
<feColorMatrix in="SourceAlpha" type="matrix" values="0 0 0 0 0 0 0 0 0 0 0 0 0 0 0 0 0 0 127 0" result="hardAlpha"/>
<feOffset dy="1"/>
<feGaussianBlur stdDeviation="0.5"/>
<feComposite in2="hardAlpha" operator="arithmetic" k2="-1" k3="1"/>
<feColorMatrix type="matrix" values="0 0 0 0 0 0 0 0 0 0 0 0 0 0 0 0 0 0 0.25 0"/>
<feBlend mode="normal" in2="shape" result="effect2_innerShadow_1281_1701"/>
</filter>
<clipPath id="clip0_1281_1701">
<rect width="48" height="57" fill="white"/>
</clipPath>
</defs>
</svg>
